<svg width="300" height="201" viewBox="0 0 300 201" fill="none" xmlns="http://www.w3.org/2000/svg">
<g clip-path="url(#clip0_63_2471)">
<path d="M265.375 158.65H117.75V47.25L265.375 102.95V158.65Z" fill="white"/>
<path d="M265.375 158.9H117.75C117.625 158.9 117.5 158.8 117.5 158.65V47.25C117.5 47.25 117.55 47.1 117.6 47.05C117.675 47 117.75 47 117.825 47.025L265.45 102.725C265.45 102.725 265.6 102.85 265.6 102.95V158.65C265.6 158.775 265.5 158.9 265.35 158.9H265.375ZM118 158.425H265.15V103.125L118 47.6V158.425Z" fill="#1D1D1F"/>
<path d="M107.225 37.25L275.9 100.9V91.15L107.225 27.5V37.25Z" fill="white"/>
<path d="M275.9 101.125C275.9 101.125 275.85 101.125 275.825 101.125L107.15 37.475C107.15 37.475 107 37.35 107 37.25V27.5C107 27.5 107.05 27.35 107.1 27.3C107.175 27.25 107.25 27.25 107.325 27.275L275.975 90.925C275.975 90.925 276.125 91.05 276.125 91.15V100.9C276.125 100.9 276.075 101.05 276.025 101.1C275.975 101.125 275.925 101.15 275.9 101.15V101.125ZM107.475 37.075L275.65 100.55V91.325L107.475 27.85V37.075Z" fill="#1D1D1F"/>
<path d="M117.75 158.65H67.4248V110.375L117.75 88.1V158.65Z" fill="white"/>
<path d="M117.75 158.9H67.4248C67.2998 158.9 67.1748 158.8 67.1748 158.65V110.375C67.1748 110.375 67.2248 110.2 67.3248 110.15L117.65 87.875C117.65 87.875 117.8 87.85 117.875 87.875C117.95 87.925 117.975 88 117.975 88.075V158.65C117.975 158.775 117.875 158.9 117.725 158.9H117.75ZM67.6748 158.425H117.5V88.475L67.6748 110.55V158.425Z" fill="#1D1D1F"/>
<path d="M186.55 158.9C186.425 158.9 186.3 158.8 186.3 158.65V73.2C186.3 73.075 186.4 72.95 186.55 72.95C186.7 72.95 186.8 73.05 186.8 73.2V158.65C186.8 158.775 186.7 158.9 186.55 158.9Z" fill="#1D1D1F"/>
<path d="M265.375 123.625H215.35C215.225 123.625 215.1 123.525 215.1 123.375C215.1 123.225 215.2 123.125 215.35 123.125H265.375C265.5 123.125 265.625 123.225 265.625 123.375C265.625 123.525 265.525 123.625 265.375 123.625Z" fill="#1D1D1F"/>
<path d="M210.425 145.325H191.475C191.35 145.325 191.225 145.225 191.225 145.075V100.425C191.225 100.3 191.325 100.175 191.475 100.175H210.425C210.55 100.175 210.675 100.275 210.675 100.425V145.075C210.675 145.2 210.575 145.325 210.425 145.325ZM191.725 144.85H210.2V100.675H191.725V144.85Z" fill="#1D1D1F"/>
<path d="M215.35 145.325H186.525C186.4 145.325 186.275 145.225 186.275 145.075C186.275 144.925 186.375 144.825 186.525 144.825H215.35C215.475 144.825 215.6 144.925 215.6 145.075C215.6 145.225 215.5 145.325 215.35 145.325Z" fill="#1D1D1F"/>
<path d="M215.35 149.95H186.525C186.4 149.95 186.275 149.85 186.275 149.7C186.275 149.55 186.375 149.45 186.525 149.45H215.35C215.475 149.45 215.6 149.55 215.6 149.7C215.6 149.85 215.5 149.95 215.35 149.95Z" fill="#1D1D1F"/>
<path d="M215.35 154.6H186.525C186.4 154.6 186.275 154.5 186.275 154.35C186.275 154.2 186.375 154.1 186.525 154.1H215.35C215.475 154.1 215.6 154.2 215.6 154.35C215.6 154.5 215.5 154.6 215.35 154.6Z" fill="#1D1D1F"/>
<path d="M251.8 119.975H225.8C225.675 119.975 225.55 119.875 225.55 119.725V104.05C225.55 103.925 225.65 103.8 225.8 103.8H251.8C251.925 103.8 252.05 103.9 252.05 104.05V119.725C252.05 119.85 251.95 119.975 251.8 119.975ZM226.05 119.5H251.55V104.3H226.05V119.5Z" fill="#1D1D1F"/>
<path d="M175.15 145.475H129.125C129 145.475 128.875 145.375 128.875 145.225V60.225C128.875 60.225 128.925 60.075 128.975 60.025C129.05 59.975 129.125 59.975 129.2 60L175.225 77.525C175.225 77.525 175.375 77.65 175.375 77.75V145.225C175.375 145.35 175.275 145.475 175.125 145.475H175.15ZM129.375 145H174.925V77.925L129.375 60.575V144.975V145Z" fill="#1D1D1F"/>
<path d="M152.15 143.575C152.025 143.575 151.9 143.475 151.9 143.325V71.8C151.9 71.675 152 71.55 152.15 71.55C152.3 71.55 152.4 71.65 152.4 71.8V143.325C152.4 143.45 152.3 143.575 152.15 143.575Z" fill="#1D1D1F"/>
<path d="M278.9 41.95C290.415 41.95 299.75 32.6151 299.75 21.1C299.75 9.58486 290.415 0.25 278.9 0.25C267.385 0.25 258.05 9.58486 258.05 21.1C258.05 32.6151 267.385 41.95 278.9 41.95Z" fill="white"/>
<path d="M278.9 42.2C267.275 42.2 257.8 32.725 257.8 21.1C257.8 9.475 267.275 0 278.9 0C290.525 0 300 9.475 300 21.1C300 32.725 290.525 42.2 278.9 42.2ZM278.9 0.475C267.525 0.475 258.275 9.725 258.275 21.1C258.275 32.475 267.525 41.725 278.9 41.725C290.275 41.725 299.525 32.475 299.525 21.1C299.525 9.725 290.275 0.475 278.9 0.475Z" fill="#EF1E28"/>
<path d="M278.9 37.5C287.957 37.5 295.3 30.1574 295.3 21.1C295.3 12.0425 287.957 4.69998 278.9 4.69998C269.843 4.69998 262.5 12.0425 262.5 21.1C262.5 30.1574 269.843 37.5 278.9 37.5Z" fill="white"/>
<path d="M278.9 37.725C269.725 37.725 262.275 30.25 262.275 21.075C262.275 11.9 269.75 4.42499 278.9 4.42499C288.05 4.42499 295.55 11.9 295.55 21.075C295.55 30.25 288.075 37.725 278.9 37.725ZM278.9 4.94999C270 4.94999 262.75 12.2 262.75 21.1C262.75 30 270 37.25 278.9 37.25C287.8 37.25 295.05 30 295.05 21.1C295.05 12.2 287.8 4.94999 278.9 4.94999Z" fill="#EF1E28"/>
<path d="M266.35 41.95C277.865 41.95 287.2 32.6151 287.2 21.1C287.2 9.58486 277.865 0.25 266.35 0.25C254.835 0.25 245.5 9.58486 245.5 21.1C245.5 32.6151 254.835 41.95 266.35 41.95Z" fill="white"/>
<path d="M266.35 42.2C254.725 42.2 245.25 32.725 245.25 21.1C245.25 9.475 254.725 0 266.35 0C277.975 0 287.45 9.475 287.45 21.1C287.45 32.725 277.975 42.2 266.35 42.2ZM266.35 0.475C254.975 0.475 245.725 9.725 245.725 21.1C245.725 32.475 254.975 41.725 266.35 41.725C277.725 41.725 286.975 32.475 286.975 21.1C286.975 9.725 277.7 0.475 266.35 0.475Z" fill="#EF1E28"/>
<path d="M266.35 37.5C275.408 37.5 282.75 30.1574 282.75 21.1C282.75 12.0425 275.408 4.69998 266.35 4.69998C257.293 4.69998 249.95 12.0425 249.95 21.1C249.95 30.1574 257.293 37.5 266.35 37.5Z" fill="white"/>
<path d="M266.35 37.725C257.175 37.725 249.725 30.25 249.725 21.075C249.725 11.9 257.2 4.42499 266.35 4.42499C275.5 4.42499 282.975 11.9 282.975 21.075C282.975 30.25 275.5 37.725 266.35 37.725ZM266.35 4.94999C257.45 4.94999 250.2 12.2 250.2 21.1C250.2 30 257.45 37.25 266.35 37.25C275.25 37.25 282.5 30 282.5 21.1C282.5 12.2 275.25 4.94999 266.35 4.94999Z" fill="#EF1E28"/>
<path d="M253.775 41.95C265.29 41.95 274.625 32.6151 274.625 21.1C274.625 9.58486 265.29 0.25 253.775 0.25C242.26 0.25 232.925 9.58486 232.925 21.1C232.925 32.6151 242.26 41.95 253.775 41.95Z" fill="#EF1E28"/>
<path d="M253.775 37.725C244.6 37.725 237.125 30.25 237.125 21.075C237.125 11.9 244.6 4.42499 253.775 4.42499C262.95 4.42499 270.4 11.9 270.4 21.075C270.4 30.25 262.925 37.725 253.775 37.725ZM253.775 4.94999C244.875 4.94999 237.625 12.2 237.625 21.1C237.625 30 244.875 37.25 253.775 37.25C262.675 37.25 269.925 30 269.925 21.1C269.925 12.2 262.675 4.94999 253.775 4.94999Z" fill="white"/>
<path d="M252.7 34.05V30.875C250.875 30.85 248.975 30.275 247.875 29.475L248.625 27.35C249.75 28.1 251.4 28.7 253.175 28.7C255.425 28.7 256.925 27.4 256.925 25.6C256.925 23.8 255.7 22.8 253.35 21.85C250.125 20.6 248.15 19.125 248.15 16.4C248.15 13.675 250 11.8 252.925 11.325V8.14999H254.875V11.2C256.775 11.275 258.05 11.775 258.975 12.3L258.175 14.375C257.5 14 256.225 13.3 254.2 13.3C251.775 13.3 250.85 14.75 250.85 16.025C250.85 17.675 252.025 18.475 254.75 19.625C258 20.95 259.65 22.6 259.65 25.4C259.65 27.9 257.925 30.225 254.675 30.775V34.05H252.675H252.7Z" fill="white"/>
<path d="M218.05 64.45C217.925 64.45 217.8 64.35 217.8 64.2V21.1C217.8 20.975 217.9 20.85 218.05 20.85H228.525C228.65 20.85 228.775 20.95 228.775 21.1C228.775 21.25 228.675 21.35 228.525 21.35H218.275V64.2C218.275 64.325 218.175 64.45 218.025 64.45H218.05Z" fill="#1D1D1F"/>
<path d="M121.55 200.075H34.1748V163.925L111.65 165.425L121.55 200.075Z" fill="white"/>
<path d="M121.55 200.2C121.55 200.2 121.35 200.125 121.325 200.025L113.4 172.85C113.375 172.725 113.425 172.6 113.575 172.55C113.7 172.525 113.825 172.575 113.875 172.725L121.8 199.9C121.825 200.025 121.775 200.15 121.625 200.2C121.625 200.2 121.575 200.2 121.55 200.2Z" fill="#1D1D1F"/>
<path d="M89.8748 37.5C91.4748 35.1 92.7748 32.15 91.8748 29.425C90.8998 26.55 87.2748 24.9 84.4748 26.075C85.6498 24.025 86.5998 21.85 87.3248 19.575C79.6748 19.35 71.7998 20.7 65.2498 24.675C58.6998 28.65 53.6498 35.5 53.0498 43.15C52.7998 46.325 53.3498 49.675 55.2498 52.25C57.2498 54.95 60.4498 56.475 63.6998 57.275C67.9248 58.325 72.5998 58.3 76.4498 56.275C79.0498 54.9 81.1748 52.5 82.0998 49.7C82.3248 48.975 82.4998 48.25 82.5498 47.5C82.5998 46.95 82.3248 45.975 82.5498 45.5C82.7998 44.925 83.8498 44.375 84.3248 43.95C84.9748 43.375 85.6248 42.75 86.2248 42.125C87.5998 40.7 88.8248 39.15 89.9248 37.525L89.8748 37.5Z" fill="#1D1D1F"/>
<path d="M82.7998 37.7C82.7998 37.7 82.6748 37.7 82.6248 37.625C82.5248 37.525 82.5248 37.375 82.6248 37.275C84.2498 35.65 85.4248 33.625 86.0748 31.425C86.1248 31.3 86.2498 31.225 86.3748 31.25C86.4998 31.3 86.5748 31.425 86.5498 31.55C85.8748 33.825 84.6498 35.925 82.9748 37.6C82.9248 37.65 82.8748 37.675 82.7998 37.675V37.7Z" fill="#1D1D1F"/>
<path d="M82.0999 79.15L77.8249 78.675L78.9499 64.05C78.9499 64.05 75.3999 46.225 61.6749 59.525L59.1749 79.375L55.1499 79.875C55.1499 79.875 56.7749 89.15 68.2999 89.125C78.0749 89.125 82.2999 85.8 82.1249 79.125L82.0999 79.15Z" fill="white"/>
<path d="M56.7749 79.95C56.7749 79.95 56.5499 79.85 56.5249 79.75C56.5249 79.625 56.5999 79.5 56.7249 79.475L58.9249 79.2L61.4249 59.525C61.4249 59.525 61.4499 59.425 61.4999 59.375C65.7249 55.275 69.4499 53.675 72.5749 54.65C77.5749 56.2 79.1249 63.7 79.1749 64.025C79.1749 64.025 79.1749 64.075 79.1749 64.1L78.0749 78.5L80.3749 78.75C80.4999 78.75 80.5999 78.875 80.5999 79.025C80.5999 79.15 80.4749 79.25 80.3249 79.25L77.7999 78.975C77.6749 78.975 77.5749 78.85 77.5749 78.725L78.6999 64.125C78.5749 63.6 76.9999 56.575 72.4249 55.15C69.4999 54.25 65.9749 55.775 61.8999 59.7L59.3999 79.475C59.3999 79.475 59.2999 79.675 59.1999 79.675L56.7999 79.975C56.7999 79.975 56.7999 79.975 56.7749 79.975V79.95Z" fill="#1D1D1F"/>
<path d="M68.0249 60.225C70.0749 61.975 72.5249 63.35 75.1749 63.85C77.8249 64.35 80.6999 63.95 82.9749 62.45C86.7499 59.95 88.1249 54.875 87.4499 50.4C86.7749 45.925 84.4499 41.875 82.1499 38C82.1499 38 73.3249 44.775 65.1999 45.875C64.1749 48.5 64.0499 51.075 64.6499 53.6C64.6499 53.6 62.8499 51.975 61.1999 53.05C59.3999 54.225 58.6999 56.725 59.5499 58.7C60.3999 60.675 62.6499 61.85 64.7749 61.65C65.9749 61.525 67.0749 61.3 68.0499 60.275L68.0249 60.225Z" fill="white"/>
<path d="M77.375 64.3C76.65 64.3 75.9 64.225 75.15 64.1C72.725 63.65 70.275 62.425 68.05 60.575C67.025 61.55 65.825 61.75 64.8 61.85C62.525 62.075 60.225 60.775 59.325 58.775C58.425 56.725 59.2 54.05 61.05 52.825C62.275 52.025 63.575 52.575 64.275 53.025C63.8 50.575 64.05 48.15 64.975 45.775C65 45.7 65.075 45.625 65.175 45.625C73.125 44.55 81.925 37.875 82 37.8C82.05 37.75 82.125 37.75 82.2 37.75C82.275 37.75 82.325 37.8 82.35 37.875C84.425 41.35 87 45.675 87.7 50.375C88.45 55.5 86.675 60.325 83.125 62.675C81.5 63.75 79.475 64.325 77.375 64.325V64.3ZM68.025 60C68.025 60 68.125 60 68.175 60.05C70.375 61.925 72.8 63.175 75.225 63.625C77.975 64.15 80.75 63.625 82.825 62.25C86.675 59.7 87.8 54.475 87.2 50.425C86.525 45.925 84.075 41.725 82.05 38.35C80.65 39.375 72.7 45.025 65.35 46.075C64.4 48.525 64.25 50.975 64.85 53.525C64.85 53.625 64.85 53.725 64.75 53.8C64.65 53.85 64.55 53.85 64.475 53.775C64.4 53.725 62.8 52.275 61.3 53.25C59.625 54.35 58.925 56.75 59.75 58.6C60.55 60.425 62.65 61.6 64.725 61.4C66 61.275 66.975 61 67.85 60.1C67.9 60.05 67.95 60.025 68.025 60.025V60Z" fill="#1D1D1F"/>
<path d="M66.3248 58.075C66.3248 58.075 66.2998 58.075 66.2748 58.075C65.2248 57.825 64.2248 57.425 63.2998 56.875C63.1748 56.8 63.1498 56.65 63.2248 56.55C63.2998 56.425 63.4498 56.4 63.5498 56.475C64.4248 57 65.3748 57.4 66.3748 57.625C66.4998 57.65 66.5748 57.775 66.5498 57.925C66.5248 58.025 66.4248 58.1 66.3248 58.1V58.075Z" fill="#1D1D1F"/>
<path d="M109.3 124.625C109.3 124.625 146.475 130.275 177.325 101.1C169.95 96.875 165.425 89.325 163.025 79.275C163.025 79.275 150.45 91.525 138.425 91.525C128 91.525 105.45 80.475 82.1248 78.9C81.6748 80.375 80.9998 81.8 80.0248 83C78.1248 85.325 75.1248 86.6 72.2248 87.075C69.4498 87.525 66.5248 87.375 63.7998 86.6C61.3498 85.925 58.9748 84.675 57.1748 82.875C56.3498 82.05 55.6748 81.1 55.1498 80.075C38.2748 81.425 27.6498 83.45 18.7498 94.35C7.27483 108.4 -2.30017 134.775 0.499826 151.45C3.29983 168.1 10.9498 173.25 20.7248 176.475L20.2998 185.475C19.8248 195.45 29.6998 202.675 39.0498 199.2L117.075 170.3C120.875 168.9 122.85 164.725 121.575 160.9L109.325 124.625H109.3Z" fill="#EF1E28"/>
<path d="M109.125 124.125C109.125 124.125 108.925 124.05 108.9 123.95L106.8 117.675C106.75 117.55 106.825 117.4 106.95 117.375C107.075 117.325 107.225 117.4 107.25 117.525L109.35 123.8C109.4 123.925 109.325 124.075 109.2 124.1C109.175 124.1 109.15 124.1 109.125 124.1V124.125Z" fill="#1D1D1F"/>
<path d="M163.75 78.975C174.1 69.525 183.6 58.95 195.525 51.55C196.575 50.9 197.675 50.25 198.925 50.15C200.15 50.05 201.525 50.625 201.95 51.8C202.375 52.975 201.725 54.25 201.025 55.275C198.825 58.525 195.6 61.875 192.3 64.025C192.3 64.025 197.75 64.85 197.475 70C197.475 70 200.7 70.575 199.225 76.775C199.225 76.775 201.05 81.625 196.7 84.35C193.575 86.3 191.525 85.525 191.525 85.525C191.525 85.525 181.075 98.625 174.25 103.1C167.425 107.6 158.2 84.025 163.775 78.95L163.75 78.975Z" fill="white"/>
<path d="M177.975 100.45C177.975 100.45 177.85 100.425 177.8 100.375C177.7 100.275 177.725 100.125 177.8 100.025C184.05 94.475 191.25 85.5 191.325 85.4C191.4 85.325 191.5 85.3 191.6 85.325C191.6 85.325 193.6 86.025 196.575 84.175C200.7 81.6 199.025 76.925 199 76.875C199 76.825 199 76.775 199 76.725C199.725 73.65 199.25 72.05 198.725 71.25C198.175 70.4 197.45 70.25 197.425 70.25C197.3 70.25 197.225 70.125 197.225 70C197.5 65.15 192.475 64.3 192.25 64.275C192.15 64.275 192.075 64.175 192.05 64.075C192.05 63.975 192.05 63.875 192.15 63.825C195.225 61.825 198.475 58.6 200.8 55.15C201.375 54.3 202.125 53 201.7 51.875C201.3 50.8 199.975 50.3 198.925 50.375C197.75 50.475 196.7 51.075 195.65 51.725C186.8 57.2 178.525 65.15 170.55 72.825C168.25 75.025 166.1 77.1 163.925 79.125C163.825 79.225 163.675 79.2 163.575 79.125C163.475 79.025 163.5 78.875 163.575 78.775C165.75 76.75 167.9 74.675 170.2 72.475C178.2 64.775 186.5 56.825 195.4 51.325C196.475 50.65 197.625 50 198.9 49.9C200.175 49.8 201.7 50.375 202.175 51.7C202.65 53.025 201.85 54.45 201.2 55.4C198.95 58.725 195.875 61.85 192.875 63.9C194.275 64.275 197.825 65.675 197.7 69.8C198 69.9 198.625 70.2 199.1 70.95C199.925 72.225 200.05 74.175 199.45 76.75C199.65 77.375 200.975 81.95 196.8 84.55C194.075 86.25 192.15 85.95 191.575 85.8C190.675 86.925 183.975 95.125 178.1 100.35C178.05 100.4 178 100.4 177.95 100.4L177.975 100.45Z" fill="#1D1D1F"/>
<path d="M188.975 81.9C188.225 81.9 187.525 81.7 186.975 81.275C186.35 80.8 185.95 80 185.925 79.175C185.925 78.45 186.175 77.825 186.65 77.425C186.75 77.35 186.9 77.35 187 77.45C187.075 77.55 187.075 77.7 186.975 77.8C186.6 78.125 186.4 78.6 186.425 79.175C186.425 79.85 186.775 80.525 187.275 80.9C188.3 81.675 189.8 81.5 190.8 80.975C191.95 80.4 192.825 79.35 193.625 78.325C194.65 76.975 195.925 75.175 196.6 73.075C196.825 72.35 196.975 71.6 197.025 70.875C197.025 70.75 197.15 70.65 197.275 70.65C197.4 70.65 197.5 70.775 197.5 70.9C197.45 71.675 197.3 72.45 197.05 73.225C196.375 75.375 195.075 77.25 194 78.625C193.175 79.7 192.25 80.775 191.025 81.4C190.375 81.75 189.65 81.9 189 81.9H188.975Z" fill="#1D1D1F"/>
<path d="M179.4 79.175C178.475 79.175 177.55 78.8 177.125 77.95C177.075 77.825 177.125 77.675 177.225 77.625C177.35 77.575 177.5 77.625 177.55 77.725C178.05 78.7 179.475 78.9 180.475 78.475C181.4 78.1 182.15 77.35 182.875 76.625C183 76.5 183.125 76.375 183.25 76.25C184.075 75.45 185.2 74.5 186.55 74.425C187.325 74.375 188.05 74.6 188.75 74.825C189.5 75.075 190.225 75.3 190.95 75.2C191.65 75.1 192.275 74.675 192.725 73.975C193.275 73.1 193.425 71.975 193.15 71.025C192.5 68.95 190.4 67.85 189.2 67.35C187.05 66.475 184.675 66.2 182.375 66.575C182.25 66.575 182.125 66.5 182.1 66.375C182.1 66.25 182.175 66.125 182.3 66.1C184.7 65.7 187.15 65.975 189.375 66.9C190.65 67.425 192.875 68.625 193.6 70.875C193.95 71.95 193.75 73.225 193.125 74.225C192.6 75.025 191.85 75.55 191 75.65C190.175 75.75 189.375 75.5 188.6 75.275C187.9 75.05 187.25 74.85 186.575 74.875C185.375 74.95 184.35 75.825 183.575 76.575C183.45 76.7 183.325 76.825 183.2 76.95C182.45 77.7 181.65 78.5 180.65 78.925C180.25 79.075 179.825 79.175 179.375 79.175H179.4Z" fill="#1D1D1F"/>
<path d="M190.625 84.5C190.15 84.5 189.7 84.425 189.3 84.25C188.375 83.85 187.75 83 187.725 82.1C187.725 81.975 187.825 81.85 187.95 81.85C188.075 81.85 188.2 81.95 188.2 82.075C188.225 82.8 188.75 83.5 189.5 83.8C190.175 84.075 191 84.1 191.825 83.8C192.625 83.525 193.375 83.05 193.975 82.6C196.025 81.125 197.425 79.6 198.25 77.925C198.3 77.8 198.45 77.75 198.575 77.825C198.7 77.875 198.75 78.025 198.675 78.15C197.8 79.9 196.35 81.5 194.25 83.025C193.6 83.5 192.825 84 191.95 84.275C191.5 84.425 191.05 84.5 190.6 84.5H190.625Z" fill="#1D1D1F"/>
<path d="M191.375 85.55C191.375 85.55 191.25 85.55 191.2 85.475C190.925 85.2 190.675 84.85 190.525 84.475C190.475 84.35 190.525 84.2 190.65 84.15C190.775 84.1 190.925 84.15 190.975 84.275C191.1 84.6 191.3 84.875 191.55 85.125C191.65 85.225 191.65 85.375 191.55 85.475C191.5 85.525 191.45 85.55 191.375 85.55Z" fill="#1D1D1F"/>
<path d="M110.5 97.525H71.175C70.625 97.525 70.125 97.9 69.95 98.425L55 148.775C54.75 149.6 55.375 150.4 56.225 150.4H95.55C96.1 150.4 96.6 150.025 96.775 149.5L111.725 99.15C111.975 98.325 111.35 97.525 110.5 97.525Z" fill="#1D1D1F"/>
<path d="M90.2995 136.75C91.9995 135.125 93.0245 133.35 91.9495 131.625C90.8745 129.9 88.1495 129.475 86.6245 130.825C87.7745 129.925 88.9245 129 89.6245 127.725C90.3245 126.45 90.3995 124.725 89.4495 123.65C88.5995 122.7 87.1745 122.45 85.9245 122.725C85.2995 122.85 84.7245 123.1 84.1745 123.4C84.7245 122.6 84.8745 121.45 84.3995 120.55C83.6245 119.025 81.6995 118.4 80.0245 118.575C78.3245 118.775 76.7995 119.625 75.3245 120.45C65.3995 126.025 45.7995 137.375 45.7995 137.375C45.2745 140.2 55.6245 162.925 59.5245 166.725C62.0495 165.975 80.9995 150.775 88.1995 144.625C89.3995 143.6 90.6495 142.5 91.2495 141.025C91.8495 139.55 91.6245 137.625 90.3245 136.725L90.2995 136.75Z" fill="white"/>
<path d="M72.5247 131.15C72.5247 131.15 72.3747 131.1 72.3247 131.025C72.2497 130.9 72.2997 130.775 72.3997 130.7C76.0247 128.475 79.6497 126.125 83.1997 123.775C83.2997 123.7 83.4497 123.725 83.5247 123.85C83.5997 123.95 83.5747 124.1 83.4497 124.175C79.8997 126.55 76.2747 128.9 72.6497 131.125C72.5997 131.125 72.5747 131.15 72.5247 131.15Z" fill="#1D1D1F"/>
<path d="M77.1245 137.95C77.1245 137.95 76.9745 137.925 76.9245 137.85C76.8495 137.75 76.8745 137.6 76.9745 137.525L86.3495 130.825C86.3495 130.825 86.5995 130.775 86.6745 130.875C86.7495 130.975 86.7245 131.125 86.6245 131.2L77.2495 137.9C77.2495 137.9 77.1495 137.95 77.0995 137.95H77.1245Z" fill="#1D1D1F"/>
<path d="M81.5244 143.55C81.5244 143.55 81.3744 143.525 81.3244 143.45C81.2494 143.35 81.2744 143.2 81.3994 143.125C84.2494 141.2 87.0244 139.125 89.6744 136.95C89.7744 136.875 89.9244 136.875 90.0244 136.975C90.0994 137.075 90.0994 137.225 89.9994 137.325C87.3244 139.525 84.5494 141.6 81.6744 143.525C81.6244 143.55 81.5744 143.575 81.5494 143.575L81.5244 143.55Z" fill="#1D1D1F"/>
<path d="M29.3747 177.875C26.7247 177.875 24.0997 177.675 21.5247 177.25C21.3997 177.25 21.2997 177.1 21.3247 176.975C21.3247 176.85 21.4747 176.75 21.5997 176.775C34.7247 178.9 48.3997 175.625 59.0997 167.725C59.1997 167.65 59.3497 167.675 59.4247 167.775C59.4997 167.875 59.4747 168.025 59.3747 168.1C54.0997 171.975 47.8747 174.85 41.3497 176.425C37.4247 177.375 33.3747 177.85 29.3497 177.85L29.3747 177.875Z" fill="#1D1D1F"/>
<path d="M23.6498 150.475C23.6498 150.475 23.4748 150.425 23.4498 150.35C23.3748 150.225 23.4248 150.1 23.5498 150.025L44.5998 137.875C44.5998 137.875 44.8748 137.85 44.9248 137.975C44.9998 138.1 44.9498 138.225 44.8248 138.3L23.7748 150.45C23.7748 150.45 23.6998 150.475 23.6498 150.475Z" fill="#1D1D1F"/>
<path d="M30.3999 145.075C30.3999 145.075 30.3749 145.075 30.3499 145.075C30.2249 145.05 30.1249 144.925 30.1499 144.8L35.8249 117.175C35.8499 117.05 35.9749 116.95 36.0999 116.975C36.2249 117 36.3249 117.125 36.2999 117.25L30.6249 144.875C30.6249 144.875 30.4999 145.075 30.3999 145.075Z" fill="#1D1D1F"/>
<path d="M278.75 170.825H263.25C263.125 170.825 263 170.725 263 170.575C263 170.425 263.1 170.325 263.25 170.325H278.75C278.875 170.325 279 170.425 279 170.575C279 170.725 278.9 170.825 278.75 170.825Z" fill="#1D1D1F"/>
<path d="M253.375 170.825H127.05C126.925 170.825 126.8 170.725 126.8 170.575C126.8 170.425 126.9 170.325 127.05 170.325H253.375C253.5 170.325 253.625 170.425 253.625 170.575C253.625 170.725 253.525 170.825 253.375 170.825Z" fill="#1D1D1F"/>
<path d="M189.2 179.5H134.65C134.525 179.5 134.4 179.4 134.4 179.25C134.4 179.1 134.5 179 134.65 179H189.2C189.325 179 189.45 179.1 189.45 179.25C189.45 179.4 189.35 179.5 189.2 179.5Z" fill="#1D1D1F"/>
<path d="M293.775 188.175H163.575C163.45 188.175 163.325 188.075 163.325 187.925C163.325 187.775 163.425 187.675 163.575 187.675H293.775C293.9 187.675 294.025 187.775 294.025 187.925C294.025 188.075 293.925 188.175 293.775 188.175Z" fill="#1D1D1F"/>
<path d="M202.725 200.325H69.0747C68.9497 200.325 68.8247 200.225 68.8247 200.075C68.8247 199.925 68.9247 199.825 69.0747 199.825H202.725C202.85 199.825 202.975 199.925 202.975 200.075C202.975 200.225 202.875 200.325 202.725 200.325Z" fill="#1D1D1F"/>
<path d="M276.175 138.35C276.05 138.35 275.925 138.25 275.925 138.1V132.675C275.925 132.55 276.025 132.425 276.175 132.425C276.325 132.425 276.425 132.525 276.425 132.675V138.1C276.425 138.225 276.325 138.35 276.175 138.35Z" fill="#1D1D1F"/>
<path d="M219.975 138.35C219.85 138.35 219.725 138.25 219.725 138.1V132.675C219.725 132.55 219.825 132.425 219.975 132.425C220.125 132.425 220.225 132.525 220.225 132.675V138.1C220.225 138.225 220.125 138.35 219.975 138.35Z" fill="#1D1D1F"/>
<path d="M218.225 165.05H277.9C279.474 165.05 280.75 163.774 280.75 162.2V140.55C280.75 138.976 279.474 137.7 277.9 137.7H218.225C216.651 137.7 215.375 138.976 215.375 140.55V162.2C215.375 163.774 216.651 165.05 218.225 165.05Z" fill="#EF1E28"/>
<path d="M227.55 152H223.625V155.95H222.925V147.525H228.15V148.125H223.65V151.4H227.575V152H227.55Z" fill="white"/>
<path d="M235.8 152.175C235.8 152.95 235.675 153.625 235.4 154.225C235.125 154.8 234.75 155.275 234.25 155.575C233.75 155.9 233.175 156.05 232.525 156.05C231.55 156.05 230.75 155.7 230.15 155C229.55 154.3 229.25 153.35 229.25 152.15V151.275C229.25 150.5 229.375 149.825 229.65 149.225C229.925 148.625 230.3 148.175 230.8 147.85C231.3 147.525 231.875 147.375 232.525 147.375C233.175 147.375 233.75 147.525 234.25 147.85C234.75 148.15 235.125 148.6 235.4 149.175C235.675 149.75 235.8 150.4 235.825 151.15V152.15L235.8 152.175ZM235.075 151.275C235.075 150.25 234.85 149.475 234.375 148.9C233.925 148.325 233.275 148.05 232.5 148.05C231.725 148.05 231.1 148.35 230.625 148.925C230.15 149.5 229.925 150.3 229.925 151.35V152.225C229.925 153.225 230.15 154.025 230.625 154.6C231.1 155.175 231.725 155.475 232.5 155.475C233.275 155.475 233.925 155.175 234.375 154.6C234.825 154.025 235.05 153.225 235.05 152.2V151.3L235.075 151.275Z" fill="white"/>
<path d="M240.725 152.425H238.275V155.925H237.55V147.5H240.275C241.175 147.5 241.875 147.725 242.375 148.15C242.875 148.575 243.125 149.2 243.125 149.975C243.125 150.525 242.975 151 242.65 151.4C242.325 151.8 241.9 152.1 241.375 152.25L243.475 155.825V155.9H242.725L240.7 152.4L240.725 152.425ZM238.275 151.825H240.45C241.05 151.825 241.525 151.65 241.9 151.325C242.25 150.975 242.45 150.55 242.45 150C242.45 149.4 242.25 148.95 241.875 148.625C241.5 148.3 240.975 148.125 240.275 148.125H238.275V151.825Z" fill="white"/>
<path d="M252.75 153.85C252.75 153.375 252.575 153.025 252.25 152.75C251.925 152.475 251.325 152.225 250.45 151.975C249.575 151.725 248.95 151.475 248.55 151.175C247.975 150.775 247.7 150.225 247.7 149.575C247.7 148.925 247.975 148.4 248.5 148C249.025 147.6 249.7 147.4 250.525 147.4C251.075 147.4 251.575 147.5 252.025 147.725C252.475 147.95 252.8 148.25 253.05 148.625C253.3 149 253.425 149.45 253.425 149.925H252.7C252.7 149.35 252.5 148.875 252.1 148.525C251.7 148.175 251.175 148 250.525 148C249.875 148 249.375 148.15 248.975 148.425C248.6 148.725 248.4 149.1 248.4 149.55C248.4 149.975 248.575 150.325 248.925 150.6C249.275 150.875 249.825 151.1 250.575 151.325C251.325 151.525 251.9 151.75 252.3 151.975C252.7 152.2 252.975 152.45 253.175 152.775C253.375 153.075 253.475 153.45 253.475 153.875C253.475 154.55 253.2 155.075 252.675 155.475C252.15 155.875 251.45 156.075 250.575 156.075C249.975 156.075 249.425 155.975 248.95 155.75C248.45 155.55 248.075 155.25 247.825 154.85C247.575 154.475 247.45 154.025 247.45 153.525H248.15C248.15 154.125 248.375 154.6 248.825 154.925C249.275 155.275 249.85 155.45 250.6 155.45C251.25 155.45 251.775 155.3 252.175 155.025C252.575 154.725 252.775 154.35 252.775 153.875L252.75 153.85Z" fill="white"/>
<path d="M259.55 153.575H255.725L254.85 155.95H254.1L257.3 147.525H257.975L261.175 155.95H260.425L259.55 153.575ZM255.95 152.975H259.325L257.625 148.375L255.925 152.975H255.95Z" fill="white"/>
<path d="M263.125 155.325H267.275V155.925H262.4V147.5H263.125V155.325Z" fill="white"/>
<path d="M273.3 151.9H269.35V155.325H273.875V155.925H268.625V147.5H273.825V148.1H269.325V151.275H273.275V151.875L273.3 151.9Z" fill="white"/>
<path d="M287.475 187.925H283.925V130.15C283.925 129.175 284.725 128.375 285.7 128.375C286.675 128.375 287.475 129.175 287.475 130.15V187.925Z" fill="white"/>
<path d="M287.475 188.175H283.95C283.825 188.175 283.7 188.075 283.7 187.925V130.15C283.7 129.05 284.6 128.15 285.7 128.15C286.8 128.15 287.7 129.05 287.7 130.15V187.925C287.7 188.05 287.6 188.175 287.45 188.175H287.475ZM284.175 187.7H287.225V130.15C287.225 129.3 286.55 128.625 285.7 128.625C284.85 128.625 284.175 129.3 284.175 130.15V187.7Z" fill="#1D1D1F"/>
<path d="M215.4 132.3C215.4 132.85 215.85 133.275 216.375 133.275H289.475C290.025 133.275 290.45 132.825 290.45 132.3C290.45 131.775 290 131.325 289.475 131.325H216.375C215.825 131.325 215.4 131.775 215.4 132.3Z" fill="white"/>
<path d="M289.475 133.525H216.375C215.7 133.525 215.15 132.975 215.15 132.3C215.15 131.625 215.7 131.075 216.375 131.075H289.475C290.15 131.075 290.7 131.625 290.7 132.3C290.7 132.975 290.15 133.525 289.475 133.525ZM216.375 131.575C215.975 131.575 215.625 131.9 215.625 132.325C215.625 132.75 215.95 133.075 216.375 133.075H289.475C289.875 133.075 290.225 132.75 290.225 132.325C290.225 131.9 289.9 131.575 289.475 131.575H216.375Z" fill="#1D1D1F"/>
</g>
<defs>
<clipPath id="clip0_63_2471">
<rect width="300" height="200.325" fill="white"/>
</clipPath>
</defs>
</svg>
